<?xml version="1.0"?><svg width="640" height="480" xmlns="http://www.w3.org/2000/svg">
 <g>
  <title>Layer 1</title>
  <path d="m685.531982,220.804001c-0.240967,-0.673996 -0.583008,-1.332001 -1.000977,-1.936996c-0.41803,-0.605011 -0.911987,-1.159012 -1.457031,-1.624008c-0.543945,-0.464996 -1.139954,-0.843002 -1.760986,-1.095993l-285.35199,-116.348c-0.416992,-0.173004 -0.839996,-0.395004 -1.270996,-0.671005c-0.431,-0.276001 -0.869995,-0.606995 -1.320007,-1c-0.449982,-0.392998 -0.911987,-0.846001 -1.388,-1.366997c-0.475983,-0.521004 -0.964996,-1.110001 -1.471008,-1.772003c-0.752991,-0.985001 -1.520996,-2.130997 -2.290985,-3.419998c-0.769989,-1.289001 -1.542999,-2.721001 -2.303009,-4.277c-0.760986,-1.556 -1.509003,-3.236 -2.22998,-5.022003c-0.722015,-1.786995 -1.417023,-3.677994 -2.071014,-5.656998c-0.658997,-1.982002 -1.281006,-4.049995 -1.858002,-6.185997c-0.575989,-2.137001 -1.106995,-4.344002 -1.584991,-6.602001c-0.479004,-2.260002 -0.903015,-4.572002 -1.268005,-6.919003c-0.364014,-2.349998 -0.666992,-4.734997 -0.899994,-7.137997c-0.31601,-3.208 -0.493011,-6.292 -0.541016,-9.219002c-0.048981,-2.932999 0.029999,-5.709999 0.226013,-8.300999c0.195007,-2.595001 0.506012,-5.003 0.92099,-7.193001c0.415009,-2.193001 0.934998,-4.168001 1.544006,-5.892c0.303009,-0.862 0.628998,-1.66 0.972992,-2.392c0.343994,-0.732 0.706024,-1.398 1.083008,-1.996c0.376007,-0.599 0.766998,-1.129 1.166992,-1.589c0.400024,-0.46 0.811005,-0.851 1.226013,-1.17c0.074982,-0.057 0.149994,-0.112 0.225983,-0.165c0.076019,-0.052999 0.150024,-0.104 0.225006,-0.151c0.075012,-0.049 0.149994,-0.095 0.225006,-0.139c0.075012,-0.044 0.148987,-0.085999 0.225006,-0.125999c-123.455994,65.965001 -246.900009,131.925992 -370.354005,197.887998c-0.064,0.033997 -0.127,0.070007 -0.191,0.109009c-0.064,0.038986 -0.127,0.079987 -0.19,0.122986c-0.063001,0.043015 -0.126,0.089005 -0.189,0.136002c-0.062,0.048004 -0.125,0.098007 -0.188001,0.150009c-0.344,0.291992 -0.674999,0.662003 -0.988,1.106003c-0.313,0.444 -0.609,0.962997 -0.884,1.554993c-0.274,0.591995 -0.528,1.257004 -0.757,1.994995c-0.229,0.737 -0.433,1.545013 -0.608,2.425003c-0.355,1.755997 -0.597,3.787003 -0.716001,6.061005c-0.12,2.270004 -0.118,4.779999 0.012,7.5c0.13,2.714996 0.389,5.638992 0.783,8.742004c0.394,3.095993 0.924001,6.368988 1.597,9.789001c0.501,2.560989 1.064,5.109985 1.678,7.627991c0.613999,2.515991 1.278999,5.001007 1.988,7.437012c0.708,2.432983 1.458,4.816986 2.242,7.134003c0.783001,2.313995 1.601,4.561981 2.441999,6.724976c0.836,2.157013 1.700001,4.227997 2.575001,6.189026c0.875,1.961975 1.761,3.813995 2.643999,5.538971c0.883001,1.723022 1.763,3.317017 2.623001,4.761017c0.861,1.444 1.702999,2.737 2.511,3.859009c0.544001,0.753998 1.063,1.429993 1.562,2.030975c0.499001,0.603027 0.977001,1.132019 1.437,1.596008c0.459999,0.46402 0.903999,0.860992 1.333,1.201019c0.429001,0.339996 0.842999,0.619995 1.246998,0.849976l279.715988,156.76001c0.617004,0.346008 1.223022,0.820007 1.791016,1.381012c0.566986,0.561981 1.096985,1.209991 1.559998,1.903992c0.463013,0.692993 0.859009,1.43399 1.162994,2.178986c0.303009,0.744019 0.513,1.493011 0.601013,2.205017c0.044006,0.358002 0.056,0.690002 0.037994,0.992981c-0.019012,0.304016 -0.067017,0.57901 -0.143005,0.824005c-0.075989,0.244995 -0.179993,0.460022 -0.307983,0.644012c-0.128021,0.182983 -0.282013,0.333984 -0.457001,0.451996c121.867981,-81.856995 243.734985,-163.716003 365.602966,-245.574997c0.200012,-0.13501 0.381042,-0.298996 0.538025,-0.490005c0.156982,-0.190994 0.291992,-0.410004 0.400024,-0.653992c0.107971,-0.244003 0.190002,-0.513 0.243958,-0.806c0.05304,-0.292007 0.077026,-0.608002 0.069031,-0.945007c-0.014038,-0.668991 -0.155029,-1.358994 -0.397034,-2.031998z" fill="#7f007f" id="path3"/>
  <g id="g5">
   <g id="g7">
    <g id="g9">
     <g id="g11">
      <path d="m297.156006,394.955994c0.518005,4.059998 1.192993,8.109009 2.007996,12.109009c0.813995,3.993988 1.768005,7.940002 2.846008,11.803009c1.076996,3.855988 2.277985,7.630981 3.586975,11.283997c1.308014,3.649994 2.725006,7.182007 4.236023,10.557983c0.442993,0.986023 0.893982,1.960022 1.352997,2.921021c0.458984,0.959991 0.927002,1.905975 1.402985,2.838989c0.47702,0.933014 0.960999,1.85199 1.455017,2.755005c0.493988,0.903992 0.996002,1.792999 1.507996,2.666992l-273.486,-152.128998c-0.407001,-0.229004 -0.824001,-0.51001 -1.256001,-0.850006c-0.432003,-0.339996 -0.877003,-0.738007 -1.34,-1.203003c-0.463001,-0.464996 -0.943001,-0.994995 -1.444,-1.598999c-0.500999,-0.604004 -1.021999,-1.279999 -1.568001,-2.036987c-0.812,-1.123993 -1.656002,-2.42099 -2.52,-3.869019c-0.863998,-1.447998 -1.744999,-3.046997 -2.629999,-4.776001c-0.885,-1.728973 -1.772001,-3.587982 -2.648001,-5.556c-0.875999,-1.968994 -1.739,-4.046997 -2.576,-6.211975c-0.841,-2.169006 -1.657,-4.425018 -2.438999,-6.748016c-0.783001,-2.324982 -1.531,-4.718994 -2.236,-7.16098c-0.706001,-2.444 -1.368,-4.938019 -1.979,-7.46402c-0.610001,-2.528 -1.169001,-5.087997 -1.665001,-7.658997c-0.667,-3.43399 -1.188999,-6.720993 -1.574999,-9.830002c-0.387,-3.11499 -0.637,-6.052002 -0.758,-8.779999c-0.122,-2.733002 -0.114,-5.25499 0.016,-7.535995c0.129,-2.285004 0.38,-4.326004 0.746,-6.091003c0.18,-0.884003 0.389,-1.696991 0.622999,-2.438004c0.234001,-0.741989 0.493,-1.410995 0.772001,-2.005997c0.279999,-0.595993 0.580999,-1.117996 0.897999,-1.565002c0.318001,-0.446991 0.653,-0.819 1.001001,-1.113998c0.353998,-0.294998 0.713999,-0.51799 1.08,-0.67099c0.365999,-0.153 0.737999,-0.239014 1.116999,-0.261002c0.380001,-0.022003 0.767,0.019989 1.161001,0.119995c0.394999,0.100006 0.797998,0.259003 1.210999,0.472l278.83799,144.787003c-0.67099,0.807007 -1.290985,1.716003 -1.858978,2.718994c-0.567017,1.002014 -1.084015,2.100006 -1.553009,3.283997c-0.467987,1.183014 -0.886993,2.453003 -1.26001,3.804993c-0.371979,1.350006 -0.696991,2.779999 -0.977997,4.284027c-0.382996,2.080994 -0.677002,4.30899 -0.877991,6.669983c-0.201019,2.356995 -0.30899,4.848999 -0.321014,7.462006c-0.011993,2.609009 0.072021,5.341003 0.256012,8.182983c0.18399,2.836029 0.46701,5.785004 0.854004,8.833008z" fill="#3f973e" id="path13"/>
     </g>
    </g>
   </g>
  </g>
  <g id="g15">
   <g id="g17">
    <g id="g19">
     <g id="g21">
      <path d="m297.156006,394.955994c0.518005,4.059998 1.192993,8.109009 2.007996,12.109009c0.813995,3.993988 1.768005,7.940002 2.846008,11.803009c1.076996,3.855988 2.277985,7.630981 3.586975,11.283997c1.308014,3.649994 2.725006,7.182007 4.236023,10.557983c0.442993,0.986023 0.893982,1.960022 1.352997,2.921021c0.458984,0.959991 0.927002,1.905975 1.402985,2.838989c0.47702,0.933014 0.960999,1.85199 1.455017,2.755005c0.493988,0.903992 0.996002,1.792999 1.507996,2.666992l-273.486,-152.128998c-0.407001,-0.229004 -0.824001,-0.51001 -1.256001,-0.850006c-0.432003,-0.339996 -0.877003,-0.738007 -1.34,-1.203003c-0.463001,-0.464996 -0.943001,-0.994995 -1.444,-1.598999c-0.500999,-0.604004 -1.021999,-1.279999 -1.568001,-2.036987c-0.812,-1.123993 -1.656002,-2.42099 -2.52,-3.869019c-0.863998,-1.447998 -1.744999,-3.046997 -2.629999,-4.776001c-0.885,-1.728973 -1.772001,-3.587982 -2.648001,-5.556c-0.875999,-1.968994 -1.739,-4.046997 -2.576,-6.211975c-0.841,-2.169006 -1.657,-4.425018 -2.438999,-6.748016c-0.783001,-2.324982 -1.531,-4.718994 -2.236,-7.16098c-0.706001,-2.444 -1.368,-4.938019 -1.979,-7.46402c-0.610001,-2.528 -1.169001,-5.087997 -1.665001,-7.658997c-0.667,-3.43399 -1.188999,-6.720993 -1.574999,-9.830002c-0.387,-3.11499 -0.637,-6.052002 -0.758,-8.779999c-0.122,-2.733002 -0.114,-5.25499 0.016,-7.535995c0.129,-2.285004 0.38,-4.326004 0.746,-6.091003c0.18,-0.884003 0.389,-1.696991 0.622999,-2.438004c0.234001,-0.741989 0.493,-1.410995 0.772001,-2.005997c0.279999,-0.595993 0.580999,-1.117996 0.897999,-1.565002c0.318001,-0.446991 0.653,-0.819 1.001001,-1.113998c0.353998,-0.294998 0.713999,-0.51799 1.08,-0.67099c0.365999,-0.153 0.737999,-0.239014 1.116999,-0.261002c0.380001,-0.022003 0.767,0.019989 1.161001,0.119995c0.394999,0.100006 0.797998,0.259003 1.210999,0.472l278.83799,144.787003c-0.67099,0.807007 -1.290985,1.716003 -1.858978,2.718994c-0.567017,1.002014 -1.084015,2.100006 -1.553009,3.283997c-0.467987,1.183014 -0.886993,2.453003 -1.26001,3.804993c-0.371979,1.350006 -0.696991,2.779999 -0.977997,4.284027c-0.382996,2.080994 -0.677002,4.30899 -0.877991,6.669983c-0.201019,2.356995 -0.30899,4.848999 -0.321014,7.462006c-0.011993,2.609009 0.072021,5.341003 0.256012,8.182983c0.18399,2.836029 0.46701,5.785004 0.854004,8.833008z" fill="#ffffff" id="path23"/>
     </g>
     <path d="m378.596008,15.184c-0.35202,-0.131 -0.699005,-0.229 -1.046021,-0.289c-0.346985,-0.06 -0.690979,-0.084001 -1.034973,-0.068001c-0.345001,0.016001 -0.688019,0.071 -1.032013,0.169001c-0.342987,0.098 -0.687988,0.237 -1.032013,0.422c-118.069977,63.110999 -236.128983,126.218993 -354.197989,189.330001c0.298,-0.158997 0.6,-0.270996 0.906,-0.337997c0.306999,-0.068008 0.618,-0.091003 0.934,-0.072006c0.316,0.018997 0.638,0.07901 0.965,0.178009c0.327,0.099991 0.66,0.237991 0.998999,0.412994l278.83799,144.787003l360.363983,-226.925003l-284.662964,-107.607z" fill="#3f973e" id="path25"/>
     <path d="m664.588989,216.434006c-0.430969,-0.807007 -0.851013,-1.628006 -1.258972,-2.464005c-0.408997,-0.835999 -0.808044,-1.686996 -1.195007,-2.550995c-0.388,-0.864014 -0.765991,-1.743011 -1.132996,-2.63501c-1.252014,-3.050995 -2.388,-6.261993 -3.395996,-9.599991c-1.007996,-3.340012 -1.887024,-6.807999 -2.625,-10.368011c-0.738037,-3.564987 -1.335999,-7.224991 -1.778015,-10.944992c-0.444031,-3.725998 -0.731995,-7.514008 -0.854004,-11.330002c-0.088013,-2.863998 -0.075989,-5.645004 0.030029,-8.330002c0.10498,-2.688995 0.306946,-5.283997 0.596985,-7.772995c0.291016,-2.492996 0.670959,-4.878998 1.13501,-7.14801c0.464966,-2.272995 1.014954,-4.426987 1.643982,-6.452988c0.458008,-1.464005 0.955994,-2.862 1.495972,-4.189011c0.539001,-1.328995 1.119995,-2.584991 1.743042,-3.763992c0.623962,-1.18 1.289978,-2.282005 2,-3.299004c0.709961,-1.018997 1.464966,-1.951996 2.263977,-2.794998l-360.363983,226.924995c-0.671021,0.807007 -1.291016,1.716003 -1.859009,2.718994c-0.567017,1.002014 -1.084015,2.100006 -1.553009,3.283997c-0.467987,1.183014 -0.886993,2.453003 -1.26001,3.805023c-0.371979,1.349976 -0.696991,2.779999 -0.977997,4.283997c-0.382996,2.080994 -0.677002,4.30899 -0.877991,6.669983c-0.200989,2.357025 -0.30899,4.848999 -0.320984,7.462006c-0.012024,2.609009 0.071991,5.341003 0.255981,8.183014c0.18399,2.837982 0.46701,5.78598 0.854004,8.833984c0.518005,4.059998 1.192993,8.109009 2.007996,12.109009c0.813995,3.993988 1.768005,7.940002 2.846008,11.803009c1.076996,3.855988 2.277985,7.630981 3.587006,11.283997c1.307983,3.649994 2.725006,7.182007 4.235992,10.557983c0.442993,0.986023 0.894012,1.960022 1.352997,2.921021c0.459015,0.959991 0.927002,1.905975 1.403015,2.838989c0.47699,0.933014 0.960999,1.85199 1.454987,2.755005c0.493988,0.903992 0.996002,1.792999 1.507996,2.666992l350.36203,-233.084c-0.452026,-0.776001 -0.893005,-1.567993 -1.324036,-2.373993z" fill="#e2e3e4" id="path27"/>
    </g>
   </g>
  </g>
  <path d="m683.051025,115.132004c-0.248047,-0.699005 -0.600037,-1.377007 -1.028015,-1.996002c-0.429993,-0.619003 -0.937012,-1.179001 -1.494995,-1.644005c-0.558044,-0.464996 -1.170044,-0.834 -1.808044,-1.070999l-292.020966,-108.684998c-0.765991,-0.285 -1.511993,-0.483 -2.235016,-0.602c-0.723999,-0.118 -1.424988,-0.157 -2.10199,-0.122c-0.677002,0.035 -1.32901,0.144 -1.954987,0.319c-0.625,0.175 -1.225006,0.417 -1.795013,0.72c-123.694,65.604998 -247.386993,131.206004 -371.080999,196.812006c0.488,-0.259003 1.011,-0.451004 1.565,-0.570007c0.554,-0.119003 1.142,-0.162994 1.761001,-0.126999c0.618999,0.035004 1.27,0.151001 1.95,0.354004c0.681,0.203003 1.391,0.494003 2.13,0.876999l285.762005,148.463989c0.631989,0.32901 1.253998,0.795013 1.837006,1.356995c0.582977,0.562012 1.126984,1.221008 1.604004,1.933014c0.47699,0.712006 0.885986,1.47699 1.198975,2.253998c0.313019,0.776001 0.531006,1.562988 0.625,2.319c0.050018,0.404999 0.062012,0.779999 0.040009,1.122986c-0.02301,0.343018 -0.079987,0.653015 -0.169006,0.930023c-0.088989,0.276978 -0.208984,0.518005 -0.358002,0.722992c-0.14798,0.20401 -0.325989,0.371002 -0.527985,0.498993c125.692993,-79.507996 251.374969,-159.005997 377.069,-238.513992c0.229004,-0.145004 0.437012,-0.324997 0.617981,-0.536003c0.18103,-0.210999 0.335999,-0.454994 0.460999,-0.727997c0.125,-0.273003 0.221008,-0.573997 0.282043,-0.902c0.061951,-0.328003 0.090942,-0.681999 0.08197,-1.059998c-0.015991,-0.706001 -0.161987,-1.427002 -0.409973,-2.126999z" fill="#7f007f" id="path29"/>
  <g id="g31">
   <path d="m14.937,199.397003l285.762005,148.463989c0.631989,0.32901 1.253998,0.795013 1.837006,1.356995c0.582977,0.562012 1.126984,1.221008 1.604004,1.933014c0.47699,0.712006 0.885986,1.47699 1.198975,2.253998c0.313019,0.776001 0.531006,1.562988 0.625,2.319c0.094025,0.756989 0.055023,1.408997 -0.095978,1.941986c-0.151001,0.53302 -0.413025,0.946014 -0.766022,1.22403c-0.352997,0.276978 -0.79599,0.418976 -1.30899,0.40799c-0.513,-0.01001 -1.095001,-0.171997 -1.726013,-0.502991l-285.148987,-149.280014c-0.408998,-0.212997 -0.809999,-0.371994 -1.200999,-0.472992c-0.391,-0.101013 -0.775,-0.144012 -1.151,-0.123001c-0.375,0.020996 -0.744,0.104996 -1.105,0.256989c-0.362,0.152008 -0.717,0.372009 -1.067,0.665009c-0.344,0.291992 -0.675,0.662003 -0.988,1.106003c-0.313,0.444 -0.609,0.962997 -0.884,1.554993c-0.274,0.591995 -0.528,1.257004 -0.757,1.994995c-0.229,0.737 -0.433001,1.545013 -0.608001,2.425003c-0.355,1.755997 -0.596999,3.787003 -0.716,6.061005c-0.12,2.270004 -0.118,4.779999 0.012,7.5c0.13,2.714996 0.389,5.638992 0.783,8.742004c0.394,3.095993 0.924,6.368988 1.597,9.789001c0.500999,2.560989 1.064,5.109985 1.677999,7.627991c0.614,2.515991 1.279,5.001007 1.988,7.437012c0.708,2.432983 1.458,4.816986 2.242,7.134003c0.783001,2.313995 1.601,4.561981 2.442001,6.724976c0.835999,2.157013 1.699999,4.227997 2.574999,6.189026c0.875,1.961975 1.761,3.813995 2.644001,5.538971c0.882999,1.723022 1.763,3.317017 2.622999,4.761017c0.861,1.444 1.703001,2.737 2.511,3.859009c0.544001,0.753998 1.063002,1.429993 1.562,2.030975c0.499001,0.603027 0.977001,1.132019 1.437,1.596008c0.459999,0.46402 0.903999,0.860992 1.333,1.201019c0.429001,0.339996 0.842999,0.619995 1.247002,0.849976l279.714985,156.76001c0.617004,0.346008 1.223022,0.820007 1.791016,1.381012c0.566986,0.561981 1.096985,1.209991 1.559998,1.903992c0.463013,0.692993 0.859009,1.43399 1.162994,2.178986c0.303009,0.744019 0.513,1.493011 0.601013,2.205017c0.087982,0.712006 0.046997,1.319 -0.102997,1.807983c-0.150024,0.489014 -0.40802,0.859009 -0.753998,1.097015c-0.346008,0.238007 -0.781006,0.34201 -1.282013,0.300995c-0.501007,-0.040985 -1.070007,-0.229004 -1.686005,-0.575989l-279.162994,-157.487c-0.896999,-0.506012 -1.799999,-1.127014 -2.701,-1.845001c-0.900002,-0.719025 -1.799,-1.535004 -2.689001,-2.432007c-0.889,-0.897003 -1.768999,-1.875 -2.632999,-2.917999c-0.863001,-1.041992 -1.709999,-2.149017 -2.533001,-3.304993c-0.830999,-1.161011 -1.644999,-2.375 -2.442999,-3.637024c-0.798,-1.261993 -1.580999,-2.571991 -2.348,-3.927002c-0.768002,-1.353973 -1.52,-2.752991 -2.257,-4.190979c-0.737001,-1.438995 -1.460001,-2.919006 -2.168001,-4.434021c-1.412,-3.030975 -2.77,-6.214996 -4.058,-9.516998c-1.289,-3.306 -2.509,-6.72998 -3.645,-10.241974c-1.137,-3.516022 -2.189,-7.119019 -3.143,-10.776001c-0.955,-3.66301 -1.812,-7.382019 -2.553,-11.12001c-0.554,-2.807007 -1.023,-5.527008 -1.41,-8.152008c-0.387,-2.628998 -0.691,-5.162994 -0.914,-7.588989c-0.223,-2.430008 -0.364,-4.753006 -0.426,-6.958008c-0.062,-2.207993 -0.043,-4.298996 0.054,-6.259003c0.103,-1.959 0.28,-3.793991 0.538,-5.487991c0.258,-1.695999 0.597,-3.251007 1.021,-4.647995c0.425,-1.399002 0.935,-2.639008 1.537,-3.70401c0.603,-1.065994 1.297,-1.957001 2.088,-2.654999c0.523,-0.462997 1.098,-0.832993 1.724,-1.099991c0.625999,-0.267014 1.302999,-0.428009 2.028,-0.474014c0.726,-0.044998 1.499,0.026001 2.318,0.227005c0.819,0.203003 1.684,0.533005 2.593,1.005005z" fill="#7f007f" id="path33"/>
  </g>
  <g id="selectorGroup1">
   <path stroke-dasharray="5,5" stroke="#22c" fill="none" id="selectedBox1"/>
   <line stroke="#22c" id="selectorGrip_rotateconnector_1"/>
   <circle r="4" stroke-width="2" stroke="#22c" fill="lime" id="selectorGrip_rotate_1"/>
   <circle r="4" stroke-width="2" pointer-events="all" fill="#22c" style="cursor: nw-resize;" display="none" id="selectorGrip_resize_nw_1"/>
   <circle r="4" stroke-width="2" pointer-events="all" fill="#22c" style="cursor: n-resize;" display="none" id="selectorGrip_resize_n_1"/>
   <circle r="4" stroke-width="2" pointer-events="all" fill="#22c" style="cursor: ne-resize;" display="none" id="selectorGrip_resize_ne_1"/>
   <circle r="4" stroke-width="2" pointer-events="all" fill="#22c" style="cursor: e-resize;" display="none" id="selectorGrip_resize_e_1"/>
   <circle r="4" stroke-width="2" pointer-events="all" fill="#22c" style="cursor: se-resize;" display="none" id="selectorGrip_resize_se_1"/>
   <circle r="4" stroke-width="2" pointer-events="all" fill="#22c" style="cursor: s-resize;" display="none" id="selectorGrip_resize_s_1"/>
   <circle r="4" stroke-width="2" pointer-events="all" fill="#22c" style="cursor: sw-resize;" display="none" id="selectorGrip_resize_sw_1"/>
   <circle r="4" stroke-width="2" pointer-events="all" fill="#22c" style="cursor: w-resize;" display="none" id="selectorGrip_resize_w_1"/>
  </g>
  <rect height="79" width="0" y="137" x="-326" fill="#7f007f" id="svg_1"/>
 </g>
</svg>